<svg height='100px' width='100px'  fill="#FFFFFF" xmlns="http://www.w3.org/2000/svg" xmlns:xlink="http://www.w3.org/1999/xlink" viewBox="0 0 24 24" version="1.1" x="0px" y="0px"><title>icon/question-file</title><desc>Created with Sketch.</desc><g stroke="none" stroke-width="1" fill="none" fill-rule="evenodd"><path d="M12,13.7002 L12,13.1812 C12,13.0500826 12.0872139,12.9345512 12.2186739,12.8951131 C13.2678157,12.5806253 14,11.6120893 14,10.5002 C14,9.14305763 12.8571424,8.0002 11.5,8.0002 C10.1198576,8.0002 9,9.12005763 9,10.5002 C9,10.7763424 9.22385763,11.0002 9.5,11.0002 C9.77614237,11.0002 10,10.7763424 10,10.5002 C10,9.67234237 10.6721424,9.0002 11.5,9.0002 C12.3048576,9.0002 13,9.69534237 13,10.5002 C13,11.1673058 12.5604908,11.7486901 11.9314327,11.9372549 C11.3795633,12.1028157 11,12.6056199 11,13.1812 L11,13.7002 C11,13.9763424 11.2238576,14.2002 11.5,14.2002 C11.7761424,14.2002 12,13.9763424 12,13.7002 Z" fill="#FFFFFF" fill-rule="nonzero"></path><path d="M11.5,15 C10.9478576,15 10.5,15.4478576 10.5,16 C10.5,16.5521424 10.9478576,17 11.5,17 C12.0521424,17 12.5,16.5521424 12.5,16 C12.5,15.4478576 12.0521424,15 11.5,15 Z" fill="#FFFFFF" fill-rule="nonzero"></path><path d="M14,3 L5,3 L5,20 L18,20 L18,7 L14.5,7 C14.2238576,7 14,6.77614237 14,6.5 L14,3 Z M15,3.70710678 L15,6 L17.2928932,6 L15,3.70710678 Z M4,2.5 C4,2.22385763 4.22385763,2 4.5,2 L14.5,2 C14.6326082,2 14.7597852,2.05267842 14.8535534,2.14644661 L18.8535534,6.14644661 C18.9473216,6.2402148 19,6.36739176 19,6.5 L19,20.5 C19,20.7761424 18.7761424,21 18.5,21 L4.5,21 C4.22385763,21 4,20.7761424 4,20.5 L4,2.5 Z" fill="#FFFFFF" fill-rule="nonzero"></path></g></svg>